<svg id="55ce7ce6-14d8-4b9c-9246-1cadb201c87d" data-name="Capa 1" xmlns="http://www.w3.org/2000/svg" viewBox="0 0 238.64 190"><defs><style>.c02f0cbf-074f-4f03-a381-e956124fe4de{fill:#fff;}</style></defs><title>logo-UNAD</title><path class="c02f0cbf-074f-4f03-a381-e956124fe4de" d="M131,44.47v1.44h1.82A6.15,6.15,0,0,1,137,47.17q1.45,1.26,1.45,6.39V83.84L106.39,44.47H92.14v0.14H65v2.47h3.38a10.19,10.19,0,0,1,7.06,2.27Q78,51.62,78,60.6V97.18q0,15.49-3,21.42a21,21,0,0,1-10,9.33,33.69,33.69,0,0,1-15,3.4q-8.33,0-13.72-3.46a18.26,18.26,0,0,1-7.57-10.09q-2.17-6.63-2.17-17.84V60.6q0-8.78,2.67-11.15a10.11,10.11,0,0,1,7-2.37h3.48V44.61h-39v2.47H4.06q6.05,0,7.89,3.31T13.8,60.6V95.86q0,16,2.62,23.74t11,12.56Q35.84,137,49.21,137q13.82,0,22.07-5.47t10.47-13.88a78.8,78.8,0,0,0,2.22-20V61.1q0-7.57,2.25-10.8t7.34-3.23h3.38V46.82l0.58,0.27a17.37,17.37,0,0,1,5,4.27v36.5q0,5.19-1.6,6.42a6.42,6.42,0,0,1-4,1.23H95v1.44h18.26V95.51h-1.85a6.14,6.14,0,0,1-4.15-1.25q-1.42-1.25-1.42-6.41V55.55l34.6,42.25h1.41V53.56q0-4.37,1.1-6t4.47-1.64h1.85V44.47H131Z" transform="translate(-0.68 -5)"/><path class="c02f0cbf-074f-4f03-a381-e956124fe4de" d="M156.34,44.19L139.78,97.8h13.36l3.22-10.56h14.36l3,10.56h16.79L173.73,44.19H156.34Zm2.83,31.34L163.49,60l4.34,15.55h-8.67Z" transform="translate(-0.68 -5)"/><path class="c02f0cbf-074f-4f03-a381-e956124fe4de" d="M232.42,52.2q-6.71-8-20.22-8H191.46V97.8h21.76q11.51,0,18.71-7.52t7.21-19.54A28,28,0,0,0,232.42,52.2ZM219.09,81.5q-2.81,4-6.89,4h-4.28V56.36h4.28a7.92,7.92,0,0,1,7.21,4.24,19.58,19.58,0,0,1,2.49,10.09Q221.89,77.53,219.09,81.5Z" transform="translate(-0.68 -5)"/><circle class="c02f0cbf-074f-4f03-a381-e956124fe4de" cx="84.41" cy="28.03" r="6.98"/><circle class="c02f0cbf-074f-4f03-a381-e956124fe4de" cx="69.7" cy="13.43" r="6.98"/><circle class="c02f0cbf-074f-4f03-a381-e956124fe4de" cx="47.63" cy="6.98" r="6.98"/><circle class="c02f0cbf-074f-4f03-a381-e956124fe4de" cx="25.59" cy="13.43" r="6.98"/><circle class="c02f0cbf-074f-4f03-a381-e956124fe4de" cx="10.96" cy="28.03" r="6.98"/><circle class="c02f0cbf-074f-4f03-a381-e956124fe4de" cx="225.43" cy="104.72" r="6.98"/><circle class="c02f0cbf-074f-4f03-a381-e956124fe4de" cx="210.73" cy="119.33" r="6.98"/><circle class="c02f0cbf-074f-4f03-a381-e956124fe4de" cx="188.66" cy="125.77" r="6.98"/><path class="c02f0cbf-074f-4f03-a381-e956124fe4de" d="M174.28,124.33a7,7,0,1,0-7,7A7,7,0,0,0,174.28,124.33Z" transform="translate(-0.68 -5)"/><circle class="c02f0cbf-074f-4f03-a381-e956124fe4de" cx="151.99" cy="104.72" r="6.98"/><path class="c02f0cbf-074f-4f03-a381-e956124fe4de" d="M13.62,145.76h1.94v12.16q0,3.66-1.79,5.25a6.81,6.81,0,0,1-4.7,1.59,6.31,6.31,0,0,1-4.79-1.64q-1.56-1.64-1.56-5.2V145.76H5.06v12.16a6.61,6.61,0,0,0,.5,3.05,3,3,0,0,0,1.53,1.31,5.53,5.53,0,0,0,2.14.42,4.4,4.4,0,0,0,3.27-1.13,5.05,5.05,0,0,0,1.12-3.66V145.76Z" transform="translate(-0.68 -5)"/><path class="c02f0cbf-074f-4f03-a381-e956124fe4de" d="M30,164.37H28v-8.85a3.57,3.57,0,0,0-.83-2.69,2.86,2.86,0,0,0-2-.78,3.47,3.47,0,0,0-2.75,1.31,5.16,5.16,0,0,0-1.11,3.45v7.56H19.13V150.6h2v2.54q1.68-2.92,4.35-2.92a4.31,4.31,0,0,1,2.62.8,4.24,4.24,0,0,1,1.49,1.79,10.91,10.91,0,0,1,.4,3.6v8Z" transform="translate(-0.68 -5)"/><path class="c02f0cbf-074f-4f03-a381-e956124fe4de" d="M36,145.76v2.39H33.7v-2.39H36Zm-0.07,4.84v13.77H33.79V150.6h2.14Z" transform="translate(-0.68 -5)"/><path class="c02f0cbf-074f-4f03-a381-e956124fe4de" d="M49.82,150.6l-4.75,13.77H42.85L37.91,150.6h2.38l3.84,11.2,3.79-11.2h1.9Z" transform="translate(-0.68 -5)"/><path class="c02f0cbf-074f-4f03-a381-e956124fe4de" d="M60.49,160.27l2,0.41a5.6,5.6,0,0,1-2.13,2.92,6.14,6.14,0,0,1-3.72,1.15,5.78,5.78,0,0,1-4.57-2,7.59,7.59,0,0,1-1.75-5.21,7.67,7.67,0,0,1,1.81-5.32,5.86,5.86,0,0,1,4.56-2A5.5,5.5,0,0,1,61,152.09a8.41,8.41,0,0,1,1.68,5.59h-10q0,3.12,1.31,4.21A4.26,4.26,0,0,0,56.79,163,3.78,3.78,0,0,0,60.49,160.27Zm-0.12-4.19A6,6,0,0,0,60,154a3.51,3.51,0,0,0-1.2-1.54,3.29,3.29,0,0,0-2-.63A3.62,3.62,0,0,0,54.05,153a4.74,4.74,0,0,0-1.25,3.08h7.57Z" transform="translate(-0.68 -5)"/><path class="c02f0cbf-074f-4f03-a381-e956124fe4de" d="M67.6,164.37H65.46V150.6h1.88v3.22a6.88,6.88,0,0,1,2-3,3.64,3.64,0,0,1,2.05-.68,8.23,8.23,0,0,1,.84.06v2H71.8a3.77,3.77,0,0,0-2.95,1.32,5.38,5.38,0,0,0-1.26,3.48v7.28Z" transform="translate(-0.68 -5)"/><path class="c02f0cbf-074f-4f03-a381-e956124fe4de" d="M72.5,160.8l2-.42Q75.23,163,78.85,163a4.08,4.08,0,0,0,2.26-.6,1.9,1.9,0,0,0,.93-1.69q0-1.62-2.36-2.06l-2.9-.55a5.33,5.33,0,0,1-2.71-1.28,3.31,3.31,0,0,1-1-2.52,3.65,3.65,0,0,1,1.38-2.9,5.56,5.56,0,0,1,3.71-1.17q4.49,0,5.54,3.5l-2,.42A3.36,3.36,0,0,0,78.24,152a3.88,3.88,0,0,0-2.15.54,1.69,1.69,0,0,0-.84,1.5q0,1.53,2.14,1.92l2.69,0.48q4.21,0.77,4.21,4.08a3.65,3.65,0,0,1-1.57,3.07,6.83,6.83,0,0,1-4.17,1.17Q73.66,164.75,72.5,160.8Z" transform="translate(-0.68 -5)"/><path class="c02f0cbf-074f-4f03-a381-e956124fe4de" d="M89,145.76v2.39h-2.3v-2.39H89ZM89,150.6v13.77H86.83V150.6H89Z" transform="translate(-0.68 -5)"/><path class="c02f0cbf-074f-4f03-a381-e956124fe4de" d="M103.53,145.76v18.61h-1.94V162a4.65,4.65,0,0,1-4.36,2.74,4.8,4.8,0,0,1-4-2,8.18,8.18,0,0,1-1.56-5.13,8.71,8.71,0,0,1,1.54-5.28,4.83,4.83,0,0,1,4.09-2.11,4.75,4.75,0,0,1,4,2.26v-6.72h2.14Zm-2.14,10.16a3.89,3.89,0,0,0-1.1-2.9,3.55,3.55,0,0,0-2.58-1.09,3.12,3.12,0,0,0-2.62,1.42,6.68,6.68,0,0,0-1,4,7.71,7.71,0,0,0,.95,4.21,3,3,0,0,0,2.6,1.45,3.49,3.49,0,0,0,2.65-1.26,4.23,4.23,0,0,0,1.15-2.94v-2.86Z" transform="translate(-0.68 -5)"/><path class="c02f0cbf-074f-4f03-a381-e956124fe4de" d="M118.11,164.37H116a24.7,24.7,0,0,1-.25-2.48,5,5,0,0,1-4.83,2.86,4.85,4.85,0,0,1-3.56-1.23,4,4,0,0,1-1.24-2.95,4.14,4.14,0,0,1,1.77-3.43q1.77-1.34,6-1.35,0.57,0,1.83.05a7.93,7.93,0,0,0-.25-2.37,2.1,2.1,0,0,0-1.07-1.16,4.59,4.59,0,0,0-2.15-.44q-3.26,0-3.79,2.48l-2-.34q0.72-3.8,6.08-3.81,2.85,0,4,1.26t1.19,4.37v5.85A11.63,11.63,0,0,0,118.11,164.37Zm-2.36-6.89c-0.87-.06-1.54-0.08-2-0.08a7.76,7.76,0,0,0-3.94.83,2.66,2.66,0,0,0-1.4,2.43,2.27,2.27,0,0,0,.76,1.72,3.07,3.07,0,0,0,2.19.71,4.06,4.06,0,0,0,3.18-1.41,4.82,4.82,0,0,0,1.25-3.31C115.79,158.13,115.77,157.83,115.75,157.49Z" transform="translate(-0.68 -5)"/><path class="c02f0cbf-074f-4f03-a381-e956124fe4de" d="M132.39,145.76v18.61h-1.94V162a4.66,4.66,0,0,1-4.36,2.74,4.8,4.8,0,0,1-4-2,8.17,8.17,0,0,1-1.56-5.13,8.7,8.7,0,0,1,1.54-5.28,4.82,4.82,0,0,1,4.09-2.11,4.74,4.74,0,0,1,4,2.26v-6.72h2.14Zm-2.14,10.16a3.89,3.89,0,0,0-1.1-2.9,3.55,3.55,0,0,0-2.57-1.09,3.12,3.12,0,0,0-2.63,1.42,6.64,6.64,0,0,0-1,4,7.72,7.72,0,0,0,.95,4.21,3,3,0,0,0,2.6,1.45,3.48,3.48,0,0,0,2.64-1.26,4.22,4.22,0,0,0,1.15-2.94v-2.86Z" transform="translate(-0.68 -5)"/><path class="c02f0cbf-074f-4f03-a381-e956124fe4de" d="M156.59,164.37h-2.26l-9.63-16.23,0,1.23c0,0.46,0,.86,0,1.17v13.83h-1.88V145.76h2.92l9,15.17,0-1.29q0-.77,0-1.35V145.76h1.84v18.61Z" transform="translate(-0.68 -5)"/><path class="c02f0cbf-074f-4f03-a381-e956124fe4de" d="M171.35,164.37h-2.12c-0.08-.44-0.16-1.26-0.25-2.48a5,5,0,0,1-4.82,2.86,4.85,4.85,0,0,1-3.56-1.23,4,4,0,0,1-1.24-2.95,4.13,4.13,0,0,1,1.77-3.43q1.77-1.34,6-1.35c0.38,0,1,0,1.83.05a8,8,0,0,0-.25-2.37,2.12,2.12,0,0,0-1.07-1.16,4.59,4.59,0,0,0-2.15-.44q-3.26,0-3.79,2.48l-2-.34q0.72-3.8,6.08-3.81,2.85,0,4,1.26t1.19,4.37v5.85A11.68,11.68,0,0,0,171.35,164.37ZM169,157.49c-0.87-.06-1.54-0.08-2-0.08a7.72,7.72,0,0,0-3.94.83,2.66,2.66,0,0,0-1.41,2.43,2.27,2.27,0,0,0,.76,1.72,3.08,3.08,0,0,0,2.19.71,4.06,4.06,0,0,0,3.18-1.41,4.81,4.81,0,0,0,1.25-3.31C169,158.13,169,157.83,169,157.49Z" transform="translate(-0.68 -5)"/><path class="c02f0cbf-074f-4f03-a381-e956124fe4de" d="M183,159.54l1.93,0.34a6.16,6.16,0,0,1-1.81,3.57,5.48,5.48,0,0,1-7.85-.81,8.65,8.65,0,0,1-1.49-5.13,8.43,8.43,0,0,1,1.58-5.22,5.1,5.1,0,0,1,4.29-2.08,4.91,4.91,0,0,1,3.61,1.34,6,6,0,0,1,1.68,3.47l-1.93.37c-0.37-2.27-1.46-3.41-3.3-3.41A3,3,0,0,0,177,153.5a7.21,7.21,0,0,0-1,3.91,7.55,7.55,0,0,0,.95,4.11,3,3,0,0,0,2.66,1.47Q182.3,163,183,159.54Z" transform="translate(-0.68 -5)"/><path class="c02f0cbf-074f-4f03-a381-e956124fe4de" d="M189.61,145.76v2.39h-2.31v-2.39h2.31Zm-0.06,4.84v13.77h-2.14V150.6h2.14Z" transform="translate(-0.68 -5)"/><path class="c02f0cbf-074f-4f03-a381-e956124fe4de" d="M198.27,164.75a5.24,5.24,0,0,1-4.43-2.1,8.4,8.4,0,0,1-1.59-5.21,7.51,7.51,0,0,1,1.79-5.25,5.75,5.75,0,0,1,4.44-2,5.43,5.43,0,0,1,4.49,2.07,8,8,0,0,1,1.64,5.17,7.75,7.75,0,0,1-1.77,5.26A5.79,5.79,0,0,1,198.27,164.75Zm0.17-1.77a3.41,3.41,0,0,0,2.74-1.35,6.56,6.56,0,0,0,1.11-4.2,6.11,6.11,0,0,0-1.16-4.15,3.53,3.53,0,0,0-2.71-1.29,3.4,3.4,0,0,0-2.7,1.3,6.31,6.31,0,0,0-1.1,4.13,6.56,6.56,0,0,0,1.1,4.27A3.45,3.45,0,0,0,198.44,163Z" transform="translate(-0.68 -5)"/><path class="c02f0cbf-074f-4f03-a381-e956124fe4de" d="M218.22,164.37h-2v-8.85a3.58,3.58,0,0,0-.83-2.69,2.85,2.85,0,0,0-2-.78,3.46,3.46,0,0,0-2.75,1.31,5.15,5.15,0,0,0-1.11,3.45v7.56h-2.14V150.6h2v2.54q1.68-2.92,4.35-2.92a4.31,4.31,0,0,1,2.63.8,4.25,4.25,0,0,1,1.49,1.79,11,11,0,0,1,.4,3.6v8Z" transform="translate(-0.68 -5)"/><path class="c02f0cbf-074f-4f03-a381-e956124fe4de" d="M232.8,164.37h-2.11a24.06,24.06,0,0,1-.25-2.48,5,5,0,0,1-4.83,2.86,4.84,4.84,0,0,1-3.56-1.23,4,4,0,0,1-1.24-2.95,4.14,4.14,0,0,1,1.77-3.43q1.77-1.34,6-1.35c0.38,0,1,0,1.83.05a7.8,7.8,0,0,0-.26-2.37,2.11,2.11,0,0,0-1.07-1.16,4.61,4.61,0,0,0-2.16-.44q-3.26,0-3.79,2.48l-2-.34q0.72-3.8,6.08-3.81c1.9,0,3.25.42,4,1.26s1.2,2.3,1.2,4.37v5.85A11.69,11.69,0,0,0,232.8,164.37Zm-2.36-6.89c-0.88-.06-1.54-0.08-2-0.08a7.75,7.75,0,0,0-3.94.83,2.66,2.66,0,0,0-1.41,2.43,2.27,2.27,0,0,0,.76,1.72,3.06,3.06,0,0,0,2.18.71,4.07,4.07,0,0,0,3.19-1.41,4.83,4.83,0,0,0,1.25-3.31C230.49,158.13,230.48,157.83,230.45,157.49Z" transform="translate(-0.68 -5)"/><path class="c02f0cbf-074f-4f03-a381-e956124fe4de" d="M238.47,164.37h-2.14V145.76h2.14v18.61Z" transform="translate(-0.68 -5)"/><path class="c02f0cbf-074f-4f03-a381-e956124fe4de" d="M15.54,190.06H13.16l-1.89-5.44H4.39l-1.67,5.44H0.77l6-18.61H9.46Zm-4.76-7.19-2.87-8.94L5,182.88h5.75Z" transform="translate(-0.68 -5)"/><path class="c02f0cbf-074f-4f03-a381-e956124fe4de" d="M18.21,190.06h-1V171.45h2.14v7.13a4.5,4.5,0,0,1,4.06-2.67,5,5,0,0,1,4,1.87,8.14,8.14,0,0,1,1.6,5.43,8.29,8.29,0,0,1-1.57,5.15,4.9,4.9,0,0,1-4.1,2.08A4.71,4.71,0,0,1,19,187.79Zm1.1-5.4a4.19,4.19,0,0,0,1.3,3.08,3.76,3.76,0,0,0,2.44,1,3.09,3.09,0,0,0,2.64-1.42,6.63,6.63,0,0,0,1-3.89,7.73,7.73,0,0,0-1-4.19A3,3,0,0,0,23,177.68a3.37,3.37,0,0,0-2.44,1.08,4.6,4.6,0,0,0-1.29,2.8v3.1Z" transform="translate(-0.68 -5)"/><path class="c02f0cbf-074f-4f03-a381-e956124fe4de" d="M34,171.45v2.39h-2.3v-2.39H34Zm-0.07,4.84v13.77H31.78V176.29h2.14Z" transform="translate(-0.68 -5)"/><path class="c02f0cbf-074f-4f03-a381-e956124fe4de" d="M46.89,186l2,0.41a5.6,5.6,0,0,1-2.13,2.92A6.13,6.13,0,0,1,43,190.45a5.8,5.8,0,0,1-4.57-2,8.67,8.67,0,0,1,.07-10.52,5.85,5.85,0,0,1,4.56-2,5.51,5.51,0,0,1,4.34,1.87,8.4,8.4,0,0,1,1.68,5.59h-10q0,3.12,1.31,4.21a4.25,4.25,0,0,0,2.77,1.09A3.78,3.78,0,0,0,46.89,186Zm-0.12-4.18a6,6,0,0,0-.38-2.06,3.51,3.51,0,0,0-1.2-1.54,3.31,3.31,0,0,0-2-.63,3.63,3.63,0,0,0-2.71,1.15,4.74,4.74,0,0,0-1.25,3.08h7.57Z" transform="translate(-0.68 -5)"/><path class="c02f0cbf-074f-4f03-a381-e956124fe4de" d="M54.08,190.06H51.94V176.29h1.88v3.22a6.91,6.91,0,0,1,2-2.95,3.62,3.62,0,0,1,2.05-.67c0.22,0,.5,0,0.85.05v2H58.28a3.77,3.77,0,0,0-2.95,1.32,5.35,5.35,0,0,0-1.25,3.48v7.28Z" transform="translate(-0.68 -5)"/><path class="c02f0cbf-074f-4f03-a381-e956124fe4de" d="M67.93,188.61v1.69a15.3,15.3,0,0,1-2,.15q-4,0-4-4.18V178H59.53v-1.68H62l0.1-3.46,2-.19v3.65h3.08V178H64.05v8.66a1.92,1.92,0,0,0,2.21,2.13A10.28,10.28,0,0,0,67.93,188.61Z" transform="translate(-0.68 -5)"/><path class="c02f0cbf-074f-4f03-a381-e956124fe4de" d="M80.65,190.06H78.54q-0.12-.65-0.25-2.48a5,5,0,0,1-4.83,2.86,4.84,4.84,0,0,1-3.56-1.23,4,4,0,0,1-1.24-2.95,4.14,4.14,0,0,1,1.77-3.43q1.77-1.35,6-1.35,0.57,0,1.83.06a7.91,7.91,0,0,0-.25-2.37A2.11,2.11,0,0,0,77,178a4.56,4.56,0,0,0-2.15-.44q-3.26,0-3.79,2.48l-2-.34q0.72-3.81,6.08-3.8,2.85,0,4,1.26t1.19,4.37v5.85A11.68,11.68,0,0,0,80.65,190.06Zm-2.36-6.89q-1.31-.08-2-0.08a7.76,7.76,0,0,0-3.94.83,2.67,2.67,0,0,0-1.4,2.43,2.28,2.28,0,0,0,.76,1.72,3.08,3.08,0,0,0,2.19.71,4.07,4.07,0,0,0,3.18-1.41,4.82,4.82,0,0,0,1.25-3.31C78.33,183.83,78.32,183.53,78.29,183.18Z" transform="translate(-0.68 -5)"/><path class="c02f0cbf-074f-4f03-a381-e956124fe4de" d="M101.78,176.29l-5.52,15.38Q95.06,195,92.42,195a6.76,6.76,0,0,1-1.84-.29V193a6.55,6.55,0,0,0,1.43.19,2.54,2.54,0,0,0,1.71-.59,6.56,6.56,0,0,0,1.37-2.86l-4.76-13.49h2.17l3.7,10.35L100,176.29h1.81Z" transform="translate(-0.68 -5)"/><path class="c02f0cbf-074f-4f03-a381-e956124fe4de" d="M123.85,190.06h-2.11a24.67,24.67,0,0,1-.25-2.48,5,5,0,0,1-4.83,2.86,4.84,4.84,0,0,1-3.56-1.23,4,4,0,0,1-1.24-2.95,4.14,4.14,0,0,1,1.77-3.43q1.77-1.35,6-1.35,0.57,0,1.83.06a7.92,7.92,0,0,0-.25-2.37,2.12,2.12,0,0,0-1.07-1.17,4.57,4.57,0,0,0-2.16-.44q-3.26,0-3.79,2.48l-2-.34q0.72-3.81,6.08-3.8,2.85,0,4,1.26t1.19,4.37v5.85A11.66,11.66,0,0,0,123.85,190.06Zm-2.36-6.89q-1.31-.08-2-0.08a7.75,7.75,0,0,0-3.94.83,2.67,2.67,0,0,0-1.4,2.43,2.28,2.28,0,0,0,.76,1.72,3.08,3.08,0,0,0,2.19.71,4.06,4.06,0,0,0,3.18-1.41,4.83,4.83,0,0,0,1.25-3.31C121.53,183.83,121.52,183.53,121.49,183.18Z" transform="translate(-0.68 -5)"/><path class="c02f0cbf-074f-4f03-a381-e956124fe4de" d="M136.08,190.06V171.45h6.24a7.48,7.48,0,0,1,6.14,2.69,10,10,0,0,1,2.19,6.57,10.38,10.38,0,0,1-2.14,6.65,6.64,6.64,0,0,1-5.43,2.7h-7Zm2.33-2h3.78a5.34,5.34,0,0,0,4.56-2.07,8.9,8.9,0,0,0,1.55-5.47,8.67,8.67,0,0,0-1.48-4.95,5.19,5.19,0,0,0-4.63-2.2h-3.78v14.69Z" transform="translate(-0.68 -5)"/><path class="c02f0cbf-074f-4f03-a381-e956124fe4de" d="M155.83,171.45v2.39h-2.31v-2.39h2.31Zm-0.07,4.84v13.77h-2.14V176.29h2.14Z" transform="translate(-0.68 -5)"/><path class="c02f0cbf-074f-4f03-a381-e956124fe4de" d="M157.84,186.49l2-.42q0.68,2.61,4.31,2.6a4.08,4.08,0,0,0,2.26-.6,1.9,1.9,0,0,0,.93-1.69q0-1.62-2.36-2.05l-2.9-.55a5.27,5.27,0,0,1-2.71-1.28,3.31,3.31,0,0,1-1-2.52,3.64,3.64,0,0,1,1.38-2.9,5.54,5.54,0,0,1,3.71-1.17q4.49,0,5.54,3.5l-2,.42a3.35,3.35,0,0,0-3.47-2.15,3.92,3.92,0,0,0-2.15.54,1.7,1.7,0,0,0-.84,1.51q0,1.52,2.14,1.92l2.69,0.48q4.21,0.77,4.21,4.08a3.65,3.65,0,0,1-1.57,3.07,6.82,6.82,0,0,1-4.17,1.17Q159,190.45,157.84,186.49Z" transform="translate(-0.68 -5)"/><path class="c02f0cbf-074f-4f03-a381-e956124fe4de" d="M178.56,188.61v1.69a15.33,15.33,0,0,1-2,.15q-4,0-4-4.18V178h-2.44v-1.68h2.44l0.1-3.46,2-.19v3.65h3.08V178h-3.08v8.66a1.92,1.92,0,0,0,2.21,2.13A10.34,10.34,0,0,0,178.56,188.61Z" transform="translate(-0.68 -5)"/><path class="c02f0cbf-074f-4f03-a381-e956124fe4de" d="M191.34,190.06h-2.12a24.06,24.06,0,0,1-.25-2.48,5,5,0,0,1-4.83,2.86,4.83,4.83,0,0,1-3.56-1.23,4,4,0,0,1-1.24-2.95,4.14,4.14,0,0,1,1.78-3.43c1.18-.9,3.19-1.35,6-1.35,0.38,0,1,0,1.83.06a8,8,0,0,0-.25-2.37,2.14,2.14,0,0,0-1.07-1.17,4.58,4.58,0,0,0-2.16-.44q-3.26,0-3.79,2.48l-2-.34q0.72-3.81,6.08-3.8c1.9,0,3.25.42,4,1.26s1.2,2.3,1.2,4.37v5.85A11.41,11.41,0,0,0,191.34,190.06ZM189,183.18q-1.31-.08-2-0.08a7.75,7.75,0,0,0-3.94.83,2.66,2.66,0,0,0-1.41,2.43,2.29,2.29,0,0,0,.76,1.72,3.09,3.09,0,0,0,2.19.71,4.07,4.07,0,0,0,3.19-1.41,4.83,4.83,0,0,0,1.25-3.31C189,183.83,189,183.53,189,183.18Z" transform="translate(-0.68 -5)"/><path class="c02f0cbf-074f-4f03-a381-e956124fe4de" d="M205.85,190.06h-2v-8.85a3.59,3.59,0,0,0-.83-2.69,2.85,2.85,0,0,0-2-.78,3.46,3.46,0,0,0-2.75,1.31,5.14,5.14,0,0,0-1.11,3.45v7.55H195V176.29h2v2.54q1.68-2.92,4.35-2.92a4.29,4.29,0,0,1,2.63.8,4.18,4.18,0,0,1,1.48,1.79,10.87,10.87,0,0,1,.4,3.6v8Z" transform="translate(-0.68 -5)"/><path class="c02f0cbf-074f-4f03-a381-e956124fe4de" d="M217.94,185.24l1.93,0.34a6.14,6.14,0,0,1-1.81,3.58,5.47,5.47,0,0,1-7.84-.81,8.63,8.63,0,0,1-1.49-5.13A8.42,8.42,0,0,1,210.3,178a5.09,5.09,0,0,1,4.29-2.08,4.89,4.89,0,0,1,3.6,1.34,6,6,0,0,1,1.68,3.47l-1.93.37q-0.54-3.41-3.29-3.41a3,3,0,0,0-2.72,1.51,7.2,7.2,0,0,0-1,3.91,7.55,7.55,0,0,0,.95,4.11,3,3,0,0,0,2.66,1.47Q217.24,188.67,217.94,185.24Z" transform="translate(-0.68 -5)"/><path class="c02f0cbf-074f-4f03-a381-e956124fe4de" d="M224.68,171.45v2.39h-2.3v-2.39h2.3Zm-0.07,4.84v13.77h-2.14V176.29h2.14Z" transform="translate(-0.68 -5)"/><path class="c02f0cbf-074f-4f03-a381-e956124fe4de" d="M239.32,190.06h-2.12c-0.08-.44-0.16-1.26-0.25-2.48a5,5,0,0,1-4.82,2.86,4.83,4.83,0,0,1-3.56-1.23,4,4,0,0,1-1.24-2.95,4.13,4.13,0,0,1,1.77-3.43q1.77-1.35,6-1.35c0.38,0,1,0,1.83.06a8,8,0,0,0-.25-2.37,2.1,2.1,0,0,0-1.07-1.17,4.55,4.55,0,0,0-2.15-.44q-3.26,0-3.79,2.48l-2-.34q0.72-3.81,6.08-3.8,2.85,0,4,1.26t1.19,4.37v5.85A11.68,11.68,0,0,0,239.32,190.06ZM237,183.18q-1.31-.08-2-0.08a7.74,7.74,0,0,0-3.94.83,2.66,2.66,0,0,0-1.41,2.43,2.27,2.27,0,0,0,.76,1.72,3.09,3.09,0,0,0,2.19.71,4.06,4.06,0,0,0,3.18-1.41,4.81,4.81,0,0,0,1.25-3.31C237,183.83,237,183.53,237,183.18Z" transform="translate(-0.68 -5)"/></svg>