<?xml version="1.0" encoding="utf-8"?>
<!-- Generator: Adobe Illustrator 23.0.1, SVG Export Plug-In . SVG Version: 6.00 Build 0)  -->
<svg version="1.1" id="Capa_1" xmlns="http://www.w3.org/2000/svg" xmlns:xlink="http://www.w3.org/1999/xlink" x="0px" y="0px"
	 viewBox="0 0 332 320" style="enable-background:new 0 0 332 320;" xml:space="preserve">
<style type="text/css">
	.st0{opacity:0.44;}
	.st1{fill:#FFFFFF;}
	.st2{opacity:0.31;}
	.st3{fill:#6E3256;}
</style>
<g>
	<g class="st0">
		<path class="st1" d="M294.9,254.5c-0.2-0.1-0.4-0.2-0.5-0.2l30.4-83.3c2.4,0.5,5-0.6,6.2-2.9c1.6-2.8,0.6-6.4-2.3-7.9
			c-1.3-0.7-2.8-0.9-4.2-0.6l-23.9-83.7c1.1-0.5,2.1-1.3,2.7-2.5c1.6-2.8,0.6-6.4-2.3-7.9c-2.4-1.3-5.4-0.8-7.2,1.2l-70-54.8
			c1.5-2.8,0.5-6.3-2.3-7.9c-2.8-1.6-6.4-0.6-7.9,2.3c-0.5,0.9-0.7,1.9-0.7,2.9l-86.8-3.1c-0.3-1.6-1.3-3.1-2.9-4
			c-2.8-1.6-6.4-0.5-7.9,2.3c-1,1.8-0.9,4,0,5.7L44.3,58c-0.5-0.7-1.1-1.3-1.9-1.7c-2.8-1.6-6.4-0.6-7.9,2.3
			c-1.6,2.8-0.5,6.4,2.3,7.9c0.2,0.1,0.4,0.2,0.6,0.2L8.2,146.5c-2.7-1-5.8,0-7.2,2.6c-1.6,2.8-0.5,6.4,2.3,7.9
			c0.9,0.5,1.8,0.7,2.8,0.7l24.6,86.2c-1,0.5-1.9,1.3-2.5,2.4c-1.6,2.8-0.6,6.4,2.3,7.9c2.1,1.2,4.7,0.9,6.5-0.5l69.9,54.7
			c-0.1,0.1-0.2,0.3-0.3,0.4c-1.6,2.8-0.6,6.4,2.3,7.9c2.8,1.6,6.4,0.6,7.9-2.3c0.5-0.9,0.7-1.9,0.7-2.8l88.2,3.2
			c0.3,1.6,1.3,3.1,2.9,4c2.8,1.6,6.4,0.5,7.9-2.3c1.1-1.9,0.9-4.1-0.1-5.8l70.9-47.7c0.5,0.7,1.1,1.3,1.9,1.7
			c2.8,1.6,6.4,0.6,7.9-2.3C298.7,259.6,297.7,256.1,294.9,254.5z M214.2,308.6c-0.1-0.1-0.2-0.1-0.3-0.1l4.8-11.2
			c2.3,0.8,4.9-0.1,6.1-2.3c1-1.7,0.8-3.8-0.3-5.3l15.9-10.4l11.8-7.7c0.1,0.1,0.2,0.2,0.3,0.3l-37.3,37.5
			C215,309.1,214.6,308.8,214.2,308.6z M206.3,310.9c-0.2,0.4-0.4,0.8-0.5,1.2l-21.7-8c0.2-0.8,0.3-1.6,0.1-2.4l31.5-7.6
			c0.4,1.2,1.2,2.3,2.4,2.9c0.1,0,0.1,0.1,0.2,0.1l-4.8,11.2C210.8,307.3,207.7,308.3,206.3,310.9z M114.5,306.6
			c-1.9-1.1-4.2-0.9-6,0.2l-12.1-17c0.9-0.7,1.5-1.7,1.8-2.8l40.1,7.8l18.4,8.2c-0.4,0.8-0.5,1.6-0.5,2.4l-39,4.8
			C116.9,308.7,115.9,307.4,114.5,306.6z M38.5,251.7c1.3-2.8,0.3-6.1-2.4-7.6c-1.1-0.6-2.3-0.8-3.5-0.7L31.5,226
			c0.3,0,0.6-0.1,0.8-0.1c0.9-0.3,1.6-0.7,2.2-1.3l6.1,6.5c0.2,0.3,0.5,0.6,0.8,0.9l28.9,31c-0.2,0.2-0.4,0.4-0.5,0.7
			c-0.1,0.2-0.2,0.3-0.2,0.5L38.5,251.7z M9.8,147.4l8.3-11.9c0.7,0.4,1.4,0.7,2.2,0.8l5.9,48.5c-1.3-0.3-2.6-0.1-3.7,0.5L9.1,157
			c0.9-0.5,1.7-1.2,2.2-2.2C12.6,152.2,12,149.1,9.8,147.4z M48.1,80.9l5.9,13c-0.8,0.4-1.6,1.1-2.1,2c-1,1.9-0.8,4.1,0.5,5.6
			l-28.1,25.8c-0.4-0.4-0.9-0.8-1.5-1L48.1,80.9z M45.1,59.7l15.5-5.8c0.3,0.6,0.6,1.1,1.1,1.6L48.2,79.7l-5.9-13
			c1-0.5,1.9-1.3,2.4-2.3C45.5,62.8,45.6,61.2,45.1,59.7z M70.5,50.3c0-0.1-0.1-0.1-0.1-0.2l29.5-13.7L79.5,67.2
			c-0.1,0-0.1-0.1-0.2-0.1c-0.7-0.4-1.5-0.5-2.2-0.5l-0.5,0.1c-0.4,0.1-0.8,0.2-1.1,0.4L68.5,56C70.2,54.7,71.1,52.5,70.5,50.3z
			 M149.5,16.7l6.2,1.2c-0.3,1.6,0.1,3.2,1.2,4.4l-0.2,1.3l-7.9-5.5C149.1,17.7,149.4,17.2,149.5,16.7z M232,37.5
			c0.2,0,0.3-0.1,0.5-0.2l4.4,9.7c-0.3,0.3-0.5,0.5-0.7,0.9c-0.4,0.6-0.5,1.3-0.5,2L193.7,46l-0.4-0.3c0-1.7-1-3.4-2.6-4.3
			c-0.9-0.5-1.9-0.7-2.9-0.6l-22.5-20.2c0.1-0.2,0.1-0.5,0.2-0.7l59.9,11.7c-0.1,0.8-0.1,1.5,0.1,2.3
			C226.3,36.7,229.2,38.3,232,37.5z M271.9,65.7c1.7,0.9,3.7,0.8,5.2-0.2l10.1,13.8c-0.2,0.2-0.3,0.3-0.4,0.6
			c-0.3,0.5-0.4,1.1-0.2,1.6l-7.9,0.9l-26.1-28l17,5.6C268.9,62.1,269.8,64.5,271.9,65.7z M252,271.1l-12.5,8.1l-15.3,10
			c-0.4-0.4-0.8-0.8-1.3-1.1c-2.1-1.1-4.6-0.7-6.1,1l-2.9-2.4l37.7-17.5C251.5,269.9,251.7,270.5,252,271.1z M184.1,301.1
			c0-0.2-0.1-0.3-0.2-0.4l29.5-13.7l3.1,2.6c-0.1,0.2-0.3,0.4-0.4,0.6c-0.6,1.1-0.7,2.2-0.5,3.3L184.1,301.1z M174,301.2l-35.7-7
			L76.8,267c0.2-0.6,0.3-1.2,0.2-1.8l3.7-0.7l32.7-6c0.3,1,0.9,1.9,1.9,2.4c1.6,0.9,3.5,0.5,4.7-0.8l54.4,40
			C174.2,300.5,174.1,300.8,174,301.2z M91.7,280.6c-1.1,0.3-2,0.9-2.6,1.7L76,268.3c0.2-0.2,0.4-0.5,0.6-0.8c0,0,0-0.1,0-0.1
			l59.5,26.4l-37.8-7.4c0.1-0.7,0.1-1.5-0.1-2.2C97.4,281.4,94.5,279.8,91.7,280.6z M70.4,193.8L43.2,179c1.2-2.4,0.3-5.3-2-6.6
			c-0.3-0.1-0.5-0.3-0.8-0.3l17-34.7c0.1,0.1,0.2,0.1,0.3,0.2c0.8,0.4,1.7,0.6,2.5,0.4l12.8,52.5c-0.9,0.3-1.7,0.9-2.2,1.8
			C70.6,192.7,70.4,193.2,70.4,193.8z M27.4,185.3c-0.2-0.1-0.5-0.2-0.7-0.3l-5.9-48.7c0.5,0,1,0,1.5-0.2c2.8-0.8,4.4-3.7,3.6-6.5
			c0-0.1-0.1-0.1-0.1-0.2l30,4.4c-0.1,1.2,0.4,2.4,1.3,3.2l-17,34.9c-2.2-0.6-4.5,0.4-5.6,2.4c-1,1.7-0.8,3.8,0.3,5.3l-6.3,6.4
			C28.1,185.7,27.8,185.5,27.4,185.3z M66.9,56.8c0.4-0.1,0.8-0.3,1.1-0.5l7.1,11.1c-0.1,0.1-0.3,0.2-0.4,0.3l-0.3,0.4
			c-0.1,0.2-0.2,0.3-0.3,0.5c-0.2,0.4-0.4,0.9-0.5,1.4l0,0.5c0,1.2,0.5,2.3,1.4,3L59.2,94.2c-0.1-0.1-0.2-0.2-0.4-0.3
			c-0.4-0.2-0.8-0.4-1.2-0.5l7.1-36.5C65.4,57.1,66.2,57,66.9,56.8z M81.2,69.5l22.8-6.5c0.3,0.8,0.9,1.6,1.7,2.1l-23.8,49.1
			c-0.3-0.1-0.6-0.1-0.9-0.1l-3.2-39.7c1.2-0.1,2.3-0.8,3-2C81.3,71.4,81.4,70.4,81.2,69.5z M112.6,26.8l1.9,2.2l-7.4,3.4l0-1.3
			l-0.1-2.3C109.1,29.5,111.4,28.7,112.6,26.8z M114.8,29.5l31.9,37.9c-0.3,0.3-0.5,0.6-0.7,0.9c-0.2,0.3-0.3,0.6-0.3,0.9l-5.2-1.1
			l-28.9-5.9c0.2-1.5-0.5-3.1-1.9-3.9c-0.6-0.3-1.1-0.4-1.7-0.5L107.1,33L114.8,29.5z M145.9,20.5c1.1-0.3,2.1-1,2.7-1.9l8.1,5.6
			l-3.9,23.5l-3.1,18.6c-0.9-0.1-1.9,0.2-2.7,0.7l-31.8-37.8l24.5-11.4C140.9,20,143.4,21.2,145.9,20.5z M261.5,84.7l16.9-1.9
			l9.5,10.2c-1,1.3-1.4,3-0.9,4.7c0.2,0.7,0.6,1.3,1,1.9l-26.8,24.1c-0.3-0.4-0.7-0.7-1.2-1c-0.5-0.3-0.9-0.4-1.4-0.5l-0.2-23.5
			l-0.1-9.6c1.1-0.2,2.2-0.9,2.8-1.9C261.5,86.4,261.6,85.5,261.5,84.7z M303.5,114.5l-7.6-14.7c0.3-0.3,0.5-0.6,0.7-0.9
			L303.5,114.5z M322.8,170.2l-32.3,58.2c-0.1-0.1-0.3-0.1-0.4-0.2l12-34.2c1.7,0.5,3.5-0.2,4.4-1.8c0.1-0.2,0.2-0.5,0.3-0.7
			l-0.4-1.1c1.9-1.2,2.9-3.6,2.2-5.8c-0.2-0.7-0.5-1.3-1-1.8l14.2-13.4C322.1,169.7,322.4,170,322.8,170.2z M286,228.4l-3.1-3.9
			l17.4-31.4c0.2,0.2,0.5,0.4,0.8,0.6c0.1,0.1,0.3,0.1,0.4,0.2l-12,34.2C288.4,227.8,287.1,227.9,286,228.4z M113.4,258l-30.3,5.6
			l-6.1,1.1c-0.2-0.7-0.5-1.3-1-1.8l37.4-43.6l3.5-4.1c0.1,0.1,0.3,0.2,0.4,0.3c0.5,0.3,1,0.4,1.5,0.5l-1.7,37.7
			c-1.3,0-2.6,0.7-3.3,2C113.4,256.4,113.3,257.2,113.4,258z M114.8,152.4l-27.5-2.6c0-1.4-0.7-2.8-2-3.5c-0.6-0.3-1.3-0.5-1.9-0.5
			l-2-27.3c0.4,0,0.7-0.1,1-0.3l33.5,32.3c-0.3,0.3-0.5,0.5-0.7,0.9C115,151.8,114.9,152.1,114.8,152.4z M62.8,131.9l8.9-7.3l8-6.6
			c0.1,0.1,0.3,0.2,0.4,0.3c0.3,0.1,0.5,0.2,0.8,0.3l1.9,25.8l0.1,1.6c-1,0.1-1.9,0.7-2.6,1.5L63,136c0,0,0,0,0,0
			C63.8,134.6,63.6,133,62.8,131.9z M59.5,102.3l7.3,5.2l-6.3,22.9c-0.3-0.1-0.6-0.1-0.9-0.1l-3.2-27
			C57.4,103.4,58.5,103,59.5,102.3z M61.5,130.7c-0.2-0.1-0.4-0.2-0.6-0.3l6.3-22.7l11.7,8.3c-0.1,0.6,0.1,1.1,0.4,1.6l-16.9,13.9
			C62.2,131.2,61.9,130.9,61.5,130.7z M111.4,62.7l29.2,5.9l5,1c-0.2,1.5,0.5,3.1,1.9,3.9c0.2,0.1,0.4,0.2,0.6,0.2l-9.2,31
			l-3.6,12.2c-0.7-0.2-1.5-0.1-2.2,0.2l-23.6-52c0.6-0.3,1.2-0.9,1.6-1.5C111.2,63.2,111.3,63,111.4,62.7z M208.7,64.2
			c1.5,0.8,3.3,0.4,4.3-0.9l28.1,16.2c-0.1,0.2-0.2,0.5-0.3,0.7l-26.2-5.3l-10.2-2.1c0.4-1.2,0.2-2.6-0.5-3.6l4.7-5.2
			C208.6,64.1,208.7,64.1,208.7,64.2z M204.1,73.5c0-0.1,0-0.1,0.1-0.2l36.5,7.4c-0.1,0.6,0,1.2,0.2,1.7l-0.8,0.3L180,106.5
			c-0.3-0.5-0.8-1-1.3-1.3c0,0,0,0-0.1,0l17.7-25.8l2.9-4.3C201,75.9,203.2,75.2,204.1,73.5z M293,101.4l2.6,21.4l-33.7,2.6
			c-0.1-0.5-0.2-0.9-0.5-1.4l26.9-24.1C289.5,101.2,291.2,101.8,293,101.4z M304.6,122.1l-8.4,0.7l-2.6-21.5c0.7-0.2,1.3-0.6,1.9-1
			l10.3,19.7c-0.3,0.2-0.6,0.5-0.8,0.9C304.7,121.3,304.6,121.7,304.6,122.1z M306.9,154.9l-7-1.2l-0.9-7.2l8.8,4.4
			c-0.2,0.2-0.4,0.5-0.5,0.7C306.8,152.6,306.7,153.8,306.9,154.9z M299.4,153.6l-13.3-2.3c0.3-0.3,0.6-0.6,0.8-1
			c1.3-2.4,0.5-5.5-1.9-6.8c-2.4-1.3-5.5-0.5-6.8,1.9c-0.8,1.4-0.8,3.1-0.2,4.5l-14.3-2.5c0.2-1.5-0.6-3-2-3.8
			c-0.6-0.3-1.3-0.5-1.9-0.5l-0.9-13.1l0-0.2c1.1-0.2,2.1-0.9,2.6-1.9c0,0,0,0,0-0.1l37,18.3L299.4,153.6z M299.2,190.9l-34,6.5
			c-0.3-1-0.9-1.9-1.9-2.4c-0.6-0.3-1.2-0.4-1.8-0.5l-1.4-43.6c0.8-0.1,1.6-0.4,2.2-1l35.9,36c0,0.5,0,1.1,0.2,1.6
			c0.2,0.7,0.5,1.3,0.9,1.8C299.2,189.8,299.1,190.3,299.2,190.9z M255.7,262.4c-0.2,0.7-0.3,1.4-0.2,2.2l-0.1,0.7
			c-0.9,0-1.7,0.2-2.4,0.8l-44-52.3c0.3-0.3,0.5-0.6,0.7-0.9c0.4-0.8,0.6-1.7,0.4-2.5l47.6-11c0.3,0.9,0.9,1.8,1.8,2.3
			c0.4,0.2,0.9,0.4,1.3,0.4l-4.9,57.1L255.7,262.4z M211,158.9l-27.6,13.5c-0.3-0.5-0.8-0.9-1.3-1.2c-0.5-0.3-1.1-0.4-1.6-0.5
			l-0.7-11l-3.1-47.4c0.7,0,1.4-0.2,2-0.5l32.9,42.2l0.4,0.5c-0.3,0.3-0.6,0.6-0.8,1C210.6,156.7,210.6,157.9,211,158.9z M180,170.8
			c-0.6,0-1.2,0.2-1.7,0.5l-6.5-7.5l-34.8-40.3c0.3-0.3,0.5-0.5,0.7-0.9c0.5-0.9,0.6-1.8,0.4-2.7l34.8-10.4c0.2,1,0.9,2,1.9,2.5
			c0.4,0.2,0.9,0.4,1.3,0.4L180,170.8z M136.7,123.8l17,19.7l24.2,28.1c-0.4,0.3-0.7,0.7-1,1.1L122.4,154c0.3-1.6-0.4-3.2-1.9-4
			l12.5-25.7C134.2,124.8,135.7,124.6,136.7,123.8z M122,155.2c0.1-0.2,0.2-0.5,0.3-0.7l54.4,18.6c-0.4,1-0.4,2.1,0,3.1l-43.9,27.2
			l-10.5,6.5c-0.3-0.5-0.7-0.9-1.3-1.2c-0.5-0.3-1.1-0.4-1.7-0.5l-0.1-17.2l-0.2-33.9C120.2,157,121.3,156.3,122,155.2z
			 M133.1,203.8l43.8-27.1c0.3,0.5,0.8,1,1.4,1.4c1.4,0.8,3.1,0.6,4.3-0.4l16.4,23.3l5,7c-0.4,0.3-0.7,0.7-1,1.1
			c-0.3,0.5-0.4,1.1-0.5,1.7l-39.5,0.5l-40,0.5c0-0.5-0.2-1.1-0.4-1.5L133.1,203.8z M199.5,200.8L183,177.3c0.2-0.2,0.4-0.5,0.6-0.8
			c0.6-1.2,0.6-2.5,0.1-3.6l27.5-13.5c0.3,0.6,0.8,1.1,1.5,1.5c0.2,0.1,0.5,0.2,0.8,0.3l-7,46c-0.7,0-1.4,0.2-2,0.6L199.5,200.8z
			 M214.2,161.3c1.1,0.1,2.2-0.3,3-1.1l41.2,35.8c-0.1,0.1-0.2,0.3-0.3,0.4c-0.4,0.7-0.5,1.5-0.5,2.3l-47.6,11
			c-0.3-0.8-0.9-1.6-1.7-2.1c-0.3-0.2-0.7-0.3-1.1-0.4L214.2,161.3z M218.3,156.8l37.8-8.7c0.3,0.9,0.9,1.8,1.8,2.3
			c0.6,0.3,1.2,0.5,1.8,0.5l1.4,43.6c-0.9,0.1-1.7,0.5-2.4,1.1l-41.2-35.8c0.1-0.1,0.2-0.3,0.3-0.5
			C218.4,158.5,218.5,157.7,218.3,156.8z M302,181c-2,0.6-3.4,2.3-3.7,4.3l-9.6-9.6l-26-26.1c0.2-0.2,0.3-0.4,0.5-0.7
			c0.2-0.3,0.3-0.6,0.4-1l14.7,2.5c0.4,0.7,1,1.4,1.8,1.8c1.9,1,4.1,0.8,5.6-0.5l13.8,2.4l3.3,26.8C302.5,180.9,302.3,180.9,302,181
			z M261.7,127.4c0.2-0.5,0.3-1,0.3-1.5l33.7-2.6l2.7,22.3L261.7,127.4z M258.4,129.9l0.9,13.3c-1.2,0.2-2.2,0.8-2.9,1.9
			c-0.4,0.8-0.6,1.7-0.4,2.5l-21.1,4.9l-16.7,3.9c-0.1-0.3-0.3-0.6-0.4-0.9l37.4-26.8c0.3,0.3,0.6,0.6,1,0.9
			C256.9,129.8,257.6,130,258.4,129.9z M217.5,155c-0.3-0.4-0.7-0.7-1.1-0.9c-1.3-0.7-2.9-0.6-4.1,0.2l-0.5-0.6l-32.8-42
			c0.4-0.3,0.8-0.7,1-1.2c0.2-0.3,0.3-0.7,0.4-1l17.3,3.8l56.5,12.2c-0.2,1,0,2,0.6,2.8L217.5,155z M254.7,124.2
			c-0.1,0.2-0.2,0.5-0.3,0.7L185.6,110l-5-1.1c0.1-0.7-0.1-1.4-0.4-2.1l16.8-6.6l44.1-17.4c0.3,0.7,0.9,1.3,1.6,1.7
			c0.9,0.5,1.9,0.6,2.8,0.4l11.5,37.4C256,122.7,255.2,123.3,254.7,124.2z M195.5,79.5L178.1,105c-1.2-0.5-2.6-0.3-3.6,0.5
			l-22.7-32.3c0.4-0.3,0.7-0.7,1-1.1c0.3-0.5,0.4-1,0.5-1.5l43.8,1.9c0.2,1,0.8,1.9,1.7,2.4L195.5,79.5z M174.1,105.8
			c-0.3,0.3-0.5,0.6-0.7,0.9c-0.4,0.7-0.5,1.5-0.5,2.3l-18.1,5.4l-16.8,5c-0.3-0.8-0.9-1.6-1.7-2.1c-0.2-0.1-0.4-0.2-0.6-0.2
			l12.8-43.2c1,0.2,2,0.1,2.9-0.5L174.1,105.8z M132.6,117.3c-0.6,0.3-1.2,0.9-1.6,1.5c-0.2,0.4-0.4,0.9-0.4,1.3l-47.1-3.6
			c0.1-0.9-0.3-1.8-1.1-2.2l23.8-49.1c0.9,0.4,1.9,0.4,2.8,0L132.6,117.3z M96,130.8L82.8,118c0.2-0.2,0.3-0.3,0.4-0.6
			c0.1-0.1,0.1-0.3,0.2-0.4l23.9,1.8l23.2,1.8c0,1.4,0.7,2.7,1.9,3.4l-12.3,25.5l-0.1,0.3c-1.3-0.5-2.8-0.3-3.8,0.5L96,130.8z
			 M116.7,156.7c0.6,0.3,1.2,0.5,1.8,0.5l0.2,34.2l0.1,16.9c-1.3,0.1-2.4,0.8-3.1,2c0,0.1-0.1,0.1-0.1,0.2l-37.8-15.1
			c0.4-1.3,0.1-2.6-0.7-3.6l18.6-17.2l20-18.5C116.1,156.3,116.4,156.5,116.7,156.7z M77.6,196c0-0.1,0.1-0.1,0.1-0.2l37.8,15.1
			c-0.5,1.4-0.1,2.9,1,4l-12.9,15l-28,32.6c-0.1-0.1-0.3-0.2-0.4-0.3c-0.5-0.3-1-0.4-1.6-0.5l0.5-33.5l0.4-30.3
			C75.7,197.9,76.9,197.2,77.6,196z M119.3,216c1.1,0,2.1-0.5,2.8-1.3l52.5,40.3c-0.1,0.1-0.1,0.2-0.2,0.3c-0.3,0.5-0.4,1.1-0.5,1.7
			l-52.9,0.4c-0.1-1.3-0.8-2.5-2-3.1c-0.5-0.3-1-0.4-1.5-0.5L119.3,216z M174.8,254.6L151.9,237l-29.5-22.7c0.1-0.1,0.1-0.2,0.2-0.3
			c0.3-0.5,0.4-1.1,0.5-1.7l79.6-1c0.1,1.1,0.7,2.2,1.6,2.8l-7,11.2l-17.6,28.3C178,252.8,176,253.2,174.8,254.6z M197.7,225.5
			l6.9-11.1c1.4,0.7,3,0.6,4.1-0.3l44,52.3c-0.3,0.3-0.5,0.6-0.7,0.9c-0.2,0.3-0.3,0.7-0.4,1l-70-10.9c0.1-1.3-0.5-2.7-1.6-3.5
			L197.7,225.5z M180.6,259.7l32.3,26.8l-29.2,13.6c-0.9-1.7-2.6-2.7-4.5-2.8l-0.4-36.5C179.5,260.6,180.1,260.2,180.6,259.7z
			 M199.3,274.7l-18.4-15.3c0.1-0.1,0.2-0.2,0.3-0.4c0.2-0.3,0.3-0.7,0.4-1l69.6,10.9l-37.7,17.5L199.3,274.7z M259.3,258.9
			c-1.3,0.4-2.3,1.2-3,2.2l0.8-8.7l4.4-50.3c0.8,0,1.6-0.2,2.3-0.7l5.2,6.4l4.8,5.9c-1.1,2.4-0.2,5.2,2.1,6.4
			c1.1,0.6,2.3,0.7,3.5,0.5l3.1,3.8L263,259.3C261.9,258.7,260.6,258.6,259.3,258.9z M279.8,220.6c1.2-0.4,2.2-1.2,2.8-2.3
			c1.3-2.4,0.5-5.5-1.9-6.8c-2.4-1.3-5.4-0.5-6.7,1.8l-6.6-8.2l-3.2-4c0.3-0.3,0.6-0.6,0.8-1c0.4-0.7,0.5-1.6,0.4-2.4l16.9-3.2
			l17.1-3.3c0.1,0.5,0.4,1,0.7,1.4l-17.4,31.4L279.8,220.6z M303.2,180.8l-3.2-26.6l7,1.2c0.4,1.1,1.1,2.1,2.2,2.7
			c0.3,0.2,0.7,0.3,1,0.4l-5.2,22.5C304.5,180.9,303.9,180.8,303.2,180.8z M308.2,150.5l-9.2-4.6l-2.8-22.6l8.4-0.7
			c0.1,0.8,0.6,1.5,1.3,1.9c0.4,0.2,0.9,0.3,1.4,0.3l3.4,24.4C309.8,149.4,308.9,149.8,308.2,150.5z M291.2,91.1l-1.6-7.8l3.5,7.8
			C292.5,91,291.8,91,291.2,91.1z M286.7,81.9c0.2,0.4,0.5,0.8,1,1c0.4,0.2,0.9,0.3,1.3,0.3l1.6,8c0,0,0,0-0.1,0
			c-0.9,0.3-1.7,0.8-2.3,1.4l-9.2-9.9L286.7,81.9z M257.9,103.1l0.1,19.1c-0.2,0-0.4,0-0.6,0.1l-1.4-4.4l-10.2-33
			c0.8-0.3,1.6-0.9,2-1.7c0.1-0.2,0.2-0.4,0.3-0.6l0.6,0.2c0.1,1.6,1,3.2,2.6,4c0.9,0.5,1.9,0.7,2.9,0.6c0.3,0.6,0.8,1.2,1.5,1.5
			c0.6,0.4,1.3,0.5,2,0.5L257.9,103.1z M249.5,79.8c-0.4,0.7-0.6,1.5-0.6,2.3l-0.5-0.1c0.3-1.6-0.4-3.3-1.9-4.1
			c-0.7-0.4-1.5-0.5-2.2-0.5l-1.7-10.5l-2.1-13.3c0.3-0.1,0.5-0.1,0.7-0.2l12.6,24C252,77.3,250.4,78.2,249.5,79.8z M243.7,77.4
			c-0.9,0.2-1.8,0.8-2.4,1.6l-25.5-14.7l-2.6-1.5c0.4-0.7,0.5-1.5,0.3-2.2l22.5-9.1c0.3,0.7,0.9,1.3,1.6,1.7
			c0.7,0.4,1.5,0.5,2.2,0.5L243.7,77.4z M235.9,51l-22.4,9.1c-0.3-0.7-0.8-1.4-1.5-1.8c-1.3-0.7-3-0.5-4,0.6l-13.6-12.2l41.5,3.8
			C235.8,50.6,235.9,50.8,235.9,51z M207.7,59.2c-0.1,0.1-0.2,0.2-0.3,0.4c-0.8,1.4-0.4,3.2,0.8,4.2l-4.7,5.1
			c-0.3-0.3-0.6-0.5-0.9-0.7c-1.4-0.8-3.2-0.6-4.3,0.4l-4.9-6.6l-18.3-25l8.9,6.2c0,0.1-0.1,0.1-0.1,0.2c-1.3,2.4-0.5,5.5,1.9,6.8
			c2.4,1.3,5.5,0.5,6.8-1.9c0.3-0.5,0.5-1.1,0.6-1.7l0.3,0L207.7,59.2z M184.3,42.7l-10.2-7.1l-9.8-13.3c0.3-0.3,0.5-0.6,0.7-0.9
			c0.1-0.1,0.1-0.2,0.1-0.3l22.1,19.8C186.1,41.2,185.1,41.8,184.3,42.7z M164,22.7l8.9,12.1l-15.7-10.9l0.2-1.1
			c0.2,0.2,0.5,0.4,0.8,0.5C160.1,24.4,162.4,24.1,164,22.7z M173.9,36.1l24.1,32.8c-0.2,0.2-0.4,0.5-0.6,0.7
			c-0.4,0.7-0.5,1.5-0.5,2.2L153.2,70c0-1.3-0.7-2.6-2-3.3c-0.3-0.2-0.7-0.3-1-0.4l4.9-30.1l1.9-11.7L173.9,36.1z M80.5,114.1
			c-0.6,0.2-1.1,0.5-1.4,1.1c-0.1,0.1-0.1,0.2-0.1,0.3l-11.7-8.3l6.5-23.5l2.6-9.5c0.3,0.1,0.6,0.1,0.9,0.1L80.5,114.1z M73.6,82.8
			l-6.7,24.1l-7-5c0.3-0.3,0.7-0.7,0.9-1.2c1.2-2.1,0.7-4.7-1.1-6.2l15.8-20.8c0,0,0.1,0,0.1,0c0.1,0.1,0.3,0.1,0.4,0.2L73.6,82.8z
			 M54,102.7c0.6,0.3,1.2,0.5,1.7,0.6l3.2,27.1c-0.6,0.1-1.1,0.3-1.5,0.6l-0.4,0.3c-0.3,0.3-0.6,0.6-0.8,0.9
			c-0.2,0.3-0.3,0.7-0.4,1.1l-30.3-4.5c-0.2-0.4-0.4-0.8-0.7-1.2l28.1-25.8C53.2,102.2,53.6,102.5,54,102.7z M60.8,137.8
			c0.8-0.2,1.4-0.7,1.9-1.4l17.4,11.4c0,0,0,0,0,0c-1,1.9-0.4,4.2,1.5,5.3c0.3,0.2,0.6,0.3,0.9,0.3L79.6,167l-4.8,23.3
			c-0.4-0.1-0.8,0-1.2,0L60.8,137.8z M79.1,171.7l3.8-18.2c1.5,0.2,3.1-0.5,3.9-1.9c0.2-0.4,0.4-0.8,0.4-1.3l10.9,1l16.6,1.6
			c-0.1,1,0.2,2,0.8,2.8L95.7,174l-18.8,17.3c-0.2-0.2-0.5-0.4-0.8-0.6c-0.3-0.2-0.6-0.3-0.9-0.3L79.1,171.7z M71.9,197.2
			c0.1,0.1,0.3,0.2,0.4,0.3c0.5,0.3,1,0.4,1.6,0.5l-0.4,30.5L73,261.8c-0.7,0-1.5,0.3-2.1,0.7l-25-30.3c0.5-0.3,1-0.8,1.3-1.4
			c0.8-1.4,0.6-3.2-0.4-4.4L71.9,197.2z M45.5,232.4L68,259.7l-25.1-27C43.8,232.9,44.7,232.8,45.5,232.4z M120.3,259.7
			c0.1-0.1,0.2-0.2,0.3-0.4c0.3-0.5,0.4-1.1,0.5-1.7l52.9-0.4c0.1,1.3,0.8,2.5,2,3.1c0.8,0.4,1.6,0.6,2.5,0.4l0.4,36.4
			c-0.4,0-0.8,0.1-1.2,0.2c-1.3,0.4-2.3,1.2-2.9,2.2L120.3,259.7z M263.5,259.6l19.2-34.5l2.9,3.6c-0.7,0.4-1.3,1-1.7,1.8
			c-1,1.9-0.8,4.1,0.5,5.6L263.5,259.6C263.5,259.6,263.5,259.6,263.5,259.6z M321.4,169l-14.2,13.3c-0.5-0.5-1-0.8-1.6-1.1
			l5.2-22.6c2,0.3,4-0.6,5-2.4c1.3-2.3,0.5-5.3-1.9-6.6c-0.9-0.5-1.8-0.7-2.8-0.6l-3.3-24.4c0,0,0.1,0,0.1,0l15.3,35.4
			c-1,0.5-1.9,1.3-2.5,2.4C319.6,164.6,319.9,167.2,321.4,169z M306.4,119.7l-9.5-21.4c0.4-1.1,0.6-2.3,0.2-3.5
			c-0.5-1.7-1.8-3-3.3-3.5l-3.8-8.4c0.3-0.2,0.6-0.5,0.8-0.9c0.5-0.9,0.3-2-0.4-2.7l3.8-4.5c0.4,0.3,0.7,0.7,1.2,0.9
			c1.2,0.6,2.4,0.8,3.7,0.7l8.3,43.2C307.1,119.5,306.7,119.5,306.4,119.7z M293.9,74.3l-3.8,4.6c0,0-0.1-0.1-0.1-0.1
			c-0.6-0.3-1.2-0.4-1.8-0.2l-0.1-0.2l0,0.2c-0.1,0-0.3,0.1-0.4,0.2l-10.1-13.7c0.5-0.4,0.9-0.9,1.2-1.4c0.2-0.4,0.3-0.8,0.5-1.2
			l13.6,6C292.1,70.5,292.5,72.8,293.9,74.3z M277.9,82.4l-16.6,1.8c-0.3-0.9-0.9-1.7-1.8-2.2c-0.2-0.1-0.5-0.2-0.8-0.3
			c-0.2-1.6-1.1-3-2.5-3.8c-0.6-0.3-1.3-0.5-2-0.6L241.6,53c0.5-0.3,1-0.8,1.4-1.4c0.1-0.1,0.1-0.3,0.2-0.4l8.3,2.7L277.9,82.4z
			 M243.3,50.7c0.4-1.7-0.3-3.5-1.9-4.3c-1.4-0.8-2.9-0.6-4.1,0.2l-4.3-9.5c0.6-0.3,1.2-0.8,1.6-1.3l16.2,17.4L243.3,50.7z
			 M139.4,16.9c0.1,0.2,0.1,0.3,0.2,0.4l-24.6,11.5l-2.1-2.4c0.5-1,0.6-2.1,0.4-3.2L139.4,16.9z M105.9,28.5
			c0.2,0.1,0.4,0.2,0.6,0.2l0.1,2.3l0.1,1.7l-5.2,2.4L105.9,28.5C105.9,28.4,105.9,28.5,105.9,28.5z M106.6,33.3l0.7,24.5
			c-0.7,0.1-1.3,0.3-1.8,0.7l-0.4,0.3c-0.3,0.3-0.6,0.6-0.8,1c-0.5,0.9-0.6,1.8-0.4,2.7L81,69c-0.2-0.6-0.6-1.1-1.1-1.5l20.9-31.6
			L106.6,33.3z M62.1,55.8c0.6,0.5,1.3,0.9,2.1,1l-7.1,36.5c-0.9-0.1-1.7,0-2.5,0.3l-6.1-13.4L62.1,55.8z M28.8,186.4l6.3-6.4
			c0.4,0.4,0.8,0.8,1.3,1.1c2.4,1.3,5.4,0.5,6.7-1.8l27.3,14.9c0,1,0.4,1.9,1.2,2.7l-25.1,29.2c-0.2-0.2-0.5-0.4-0.7-0.5
			c-1.5-0.9-3.4-0.5-4.6,0.7l-0.3,0.4c-0.1,0.2-0.2,0.3-0.3,0.5c-0.2,0.3-0.3,0.6-0.4,1l-0.1,0.5c0,0.4,0,0.8,0,1.1l-5.1-5.5
			c1.1-1.3,1.5-3.1,1-4.8c-0.7-2.5-3.1-4-5.6-3.8l-2.7-21.8c0.6-0.4,1.2-1,1.6-1.7C30.3,190.2,30.1,188,28.8,186.4z M75.6,268.7
			l13.2,14.1c-0.2,0.3-0.3,0.6-0.5,0.9L75.6,268.7C75.6,268.7,75.6,268.7,75.6,268.7z M94.6,290.7c0.5-0.1,1-0.4,1.4-0.6l11.7,16.4
			l-13.3-15.7C94.4,290.8,94.5,290.8,94.6,290.7z M163.7,300.7c-2.4-1.3-5.4-0.5-6.8,1.9l-16.5-7.3l33.3,6.5c-0.1,0.5-0.1,1,0,1.5
			l-7.6,1C166,302.7,165.1,301.4,163.7,300.7z M265.8,262.6c-0.3-1.1-1-2-1.8-2.7l20.8-23.4c0.3,0.3,0.7,0.6,1.1,0.9
			c0.9,0.5,1.9,0.7,2.9,0.6l2.3,16c-1.6,0.3-3.1,1.3-4,2.9c-0.7,1.2-0.9,2.6-0.6,3.9l-20.4,2.9C265.9,263.2,265.9,262.9,265.8,262.6
			z M293.8,254c-0.8-0.2-1.6-0.3-2.3-0.2l-2.3-16c1.4-0.3,2.7-1.1,3.4-2.5c1-1.8,0.8-4-0.4-5.5l0.6-0.3c0-0.1,0.1-0.1,0.1-0.2
			c0.1-0.2,0.2-0.5,0.4-0.7l-1.4,0.8c-0.3-0.3-0.6-0.6-1-0.8l32.3-58.2c0.3,0.1,0.6,0.3,0.9,0.4L293.8,254z M300.1,76.1l23.9,83.7
			c-0.1,0-0.1,0.1-0.2,0.1l-15.3-35.4c0.4-0.2,0.8-0.6,1-1c0.7-1.3,0.2-2.9-1-3.6c-0.2-0.1-0.3-0.2-0.5-0.2l-8.4-43.4
			C299.8,76.2,300,76.1,300.1,76.1z M293.6,67.1c-0.2,0.2-0.3,0.4-0.4,0.6c0,0.1-0.1,0.2-0.1,0.3l-13.7-6c0.3-2-0.6-4.1-2.5-5.1
			c-2.4-1.3-5.5-0.5-6.8,1.9c-0.1,0.2-0.2,0.4-0.2,0.6l-17.8-5.9l-16.9-18.2c0.8-1.2,1.1-2.8,0.7-4.3c-0.8-2.8-3.7-4.4-6.5-3.6
			c-0.2,0.1-0.3,0.1-0.5,0.2l-6.3-13.8c0.5-0.4,1-0.9,1.3-1.4L293.6,67.1z M213,9.8c0.2,1.8,1.2,3.5,3,4.4c1.9,1.1,4.1,0.9,5.9-0.2
			l6.3,13.7c-1.3,0.7-2.2,1.9-2.6,3.2l-59.9-11.7c0.1-1.9-0.8-3.8-2.6-4.8c-2.4-1.3-5.5-0.5-6.8,2c-0.2,0.3-0.3,0.6-0.4,0.9
			l-6.2-1.2c0.1-0.7,0.1-1.5-0.1-2.2c-0.8-2.8-3.7-4.4-6.5-3.6c-1.6,0.5-2.8,1.7-3.4,3.1l-13.4-4.6c0.2-0.7,0.3-1.5,0.2-2.2L213,9.8
			z M115.8,10.6c0.5,0.7,1.1,1.3,1.9,1.8c2.8,1.6,6.4,0.5,7.9-2.3c0.1-0.2,0.2-0.5,0.3-0.7l13.4,4.6c-0.2,0.8-0.3,1.6-0.1,2.4
			l-26.1,6.3c-0.4-1.2-1.2-2.3-2.4-2.9c-2.4-1.3-5.5-0.5-6.8,1.9c-1.2,2.2-0.6,5,1.4,6.4l-4.9,7.4L70.2,49.6
			c-1.1-2.3-3.7-3.6-6.2-2.9c-2.8,0.8-4.4,3.7-3.6,6.5c0,0.1,0,0.1,0,0.1l-15.5,5.8c-0.1-0.2-0.2-0.5-0.3-0.7L115.8,10.6z M37.8,67
			c1.3,0.4,2.7,0.3,3.9-0.2l6.1,13.4L22.4,126c-1-0.3-2-0.4-3.1-0.1c-2.8,0.8-4.4,3.7-3.6,6.5c0.3,1.1,1,2,1.8,2.7l-8.3,11.9
			c-0.1-0.1-0.2-0.2-0.4-0.2c-0.1,0-0.2-0.1-0.2-0.1L37.8,67z M31.2,243.7l-24.6-86c0.7-0.1,1.3-0.2,1.9-0.5l13.4,28.4
			c-0.6,0.4-1,0.9-1.4,1.6c-1.3,2.4-0.5,5.5,2,6.8c1.5,0.8,3.3,0.8,4.7,0.1l2.6,21.6c-0.1,0-0.3,0-0.4,0.1c-2.8,0.8-4.4,3.7-3.6,6.5
			c0.7,2.3,2.8,3.8,5.1,3.8l1.1,17.4C31.8,243.5,31.5,243.6,31.2,243.7z M37.3,253.3c0.4-0.3,0.7-0.7,0.9-1.2l31.2,12.6
			c-0.2,1.1,0,2.2,0.7,3.1c0.4,0.4,0.8,0.7,1.3,1.1c1.2,0.7,2.6,0.6,3.7,0l13,15.3c-0.3,0.9-0.3,1.9,0,2.8c0.7,2.5,3.1,4,5.6,3.8
			l14,16.5c-0.2,0.2-0.4,0.4-0.5,0.6L37.3,253.3z M117.5,311.2c0-0.2,0-0.3-0.1-0.5l39-4.7c0.3,1.4,1.1,2.7,2.5,3.5
			c2.4,1.3,5.5,0.5,6.8-2c0.5-0.9,0.7-1.8,0.6-2.8l7.6-1c0,0.1,0,0.2,0.1,0.3c0.8,2.8,3.7,4.4,6.5,3.6c1.6-0.5,2.8-1.6,3.4-3.1
			l21.8,8.1c-0.1,0.6-0.1,1.2-0.1,1.7L117.5,311.2z M216.1,310.3c-0.1-0.2-0.3-0.3-0.4-0.5l37.3-37.6c0.2,0.1,0.3,0.3,0.5,0.4
			c0.7,0.4,1.5,0.5,2.2,0.4c1.1-0.9,2.2-1.8,3.4-2.7c0.1-0.4,0.2-0.9,0.1-1.3c0.9,0.3,2,0.3,3,0c2.3-0.7,3.8-2.7,3.8-5l20.5-2.9
			c0.1,0.4,0.3,0.9,0.6,1.3L216.1,310.3z"/>
		<g>
			
				<ellipse transform="matrix(0.5746 -0.8184 0.8184 0.5746 -106.0686 324.9153)" class="st1" cx="259.5" cy="264.5" rx="15" ry="15"/>
			
				<ellipse transform="matrix(0.7585 -0.6516 0.6516 0.7585 -50.5177 242.4235)" class="st1" cx="301.9" cy="189.4" rx="15" ry="15"/>
			<path class="st1" d="M12.4,114.2c-6.9,4.6-8.7,13.9-4.2,20.8c4.6,6.9,13.9,8.7,20.8,4.2c6.9-4.6,8.7-13.9,4.2-20.8
				C28.6,111.5,19.3,109.6,12.4,114.2z"/>
			<ellipse transform="matrix(0.6764 -0.7365 0.7365 0.6764 38.2018 117.7419)" class="st1" cx="153.1" cy="15.4" rx="15" ry="15"/>
			<path class="st1" d="M163.4,289.6c-6.9,4.6-8.7,13.9-4.2,20.8c4.6,6.9,13.9,8.7,20.8,4.2c6.9-4.6,8.7-13.9,4.2-20.8
				C179.6,286.8,170.3,285,163.4,289.6z"/>
			<path class="st1" d="M244.6,68.2c-6.9,4.6-8.7,13.9-4.2,20.8c4.6,6.9,13.9,8.7,20.8,4.2c6.9-4.6,8.7-13.9,4.2-20.8
				C260.8,65.5,251.5,63.6,244.6,68.2z"/>
			<path class="st1" d="M29.3,50.2c-6.9,4.6-8.7,13.9-4.2,20.8c4.6,6.9,13.9,8.7,20.8,4.2c6.9-4.6,8.7-13.9,4.2-20.8
				C45.5,47.5,36.2,45.6,29.3,50.2z"/>
		</g>
	</g>
	<g>
		<g>
			<path class="st1" d="M110.5,129.5c0.2-0.3,0.2-0.6,0.2-1c-0.1-4.3-0.2-8.7-0.2-13.1c0,0,0,0,0-0.1c0-0.2-0.5-22.9,13.3-40.2
				c0.3-0.3,0.4-0.8,0.4-1.2V49.3l22.8,9.2c0.2,0.1,0.5,0.1,0.7,0.1c0.2,0,0.4,0,0.6-0.1c7-2.3,15-3.4,23.6-3.4
				c8.8,0,16.9,1.2,24,3.6c0.2,0.1,0.4,0.1,0.6,0.1c0.4,0,0.8-0.1,1.2-0.4l22.5-9.1v25c-0.1,0.5,0,1.1,0.3,1.6
				c13.2,17.2,12.7,39.3,12.7,39.5c0,0,0,0,0,0.1c0,4.3-0.1,8.7-0.2,13.1c0,0,0,0,0,0.1c-1.3,23.4-8.6,44.1-21.7,61.7
				c-10.5,14.1-24.9,26.2-42.6,35.9c-25.5,14.1-50.8,19.1-58.2,20.4V129.5z"/>
			<g class="st2">
				<defs>
					<path id="SVGID_1_" class="st2" d="M110.5,129.5c0.2-0.3,0.2-0.6,0.2-1c-0.1-4.3-0.2-8.7-0.2-13.1c0,0,0,0,0-0.1
						c0-0.2-0.5-22.9,13.3-40.2c0.3-0.3,0.4-0.8,0.4-1.2V49.3l22.8,9.2c0.2,0.1,0.5,0.1,0.7,0.1c0.2,0,0.4,0,0.6-0.1
						c7-2.3,15-3.4,23.6-3.4c8.8,0,16.9,1.2,24,3.6c0.2,0.1,0.4,0.1,0.6,0.1c0.4,0,0.8-0.1,1.2-0.4l22.5-9.1v25
						c-0.1,0.5,0,1.1,0.3,1.6c13.2,17.2,12.7,39.3,12.7,39.5c0,0,0,0,0,0.1c0,4.3-0.1,8.7-0.2,13.1c0,0,0,0,0,0.1
						c-1.3,23.4-8.6,44.1-21.7,61.7c-10.5,14.1-24.9,26.2-42.6,35.9c-25.5,14.1-50.8,19.1-58.2,20.4V129.5z"/>
				</defs>
				<clipPath id="SVGID_2_">
					<use xlink:href="#SVGID_1_"  style="overflow:visible;"/>
				</clipPath>
			</g>
			<path class="st3" d="M218.3,52.1v22c-0.2,1,0.1,2.1,0.7,3c12.8,16.6,12.3,38.1,12.3,38.3c0,0,0,0.1,0,0.1c0,4.3-0.1,8.7-0.2,13
				c0,0,0,0,0,0c-1.2,22.9-8.4,43.3-21.2,60.5c-10.3,13.8-24.4,25.7-41.8,35.4c-23.2,12.8-46.3,18.1-55.6,19.9V129.9
				c0.2-0.5,0.2-0.9,0.2-1.4c-0.1-4.3-0.2-8.7-0.2-13c0,0,0-0.1,0-0.1c0-0.2-0.5-22.2,12.9-39c0.5-0.7,0.8-1.5,0.8-2.4V52.1
				l20.2,8.1c0.5,0.2,0.9,0.3,1.4,0.3c0.4,0,0.8-0.1,1.2-0.2c6.8-2.2,14.6-3.3,23-3.3c8.6,0,16.5,1.2,23.4,3.5
				c0.4,0.1,0.8,0.2,1.2,0.2c0.8,0,1.5-0.2,2.1-0.6L218.3,52.1 M222.1,46.5l-25.7,10.4l0.1,0.1c-6.9-2.3-15-3.7-24.6-3.7
				c-9.4,0-17.3,1.3-24.2,3.5l-25.4-10.3V74c-14.5,18.1-13.7,41.5-13.7,41.5c0,4.5,0.1,8.9,0.2,13.1h-0.2v120.2
				c0,0,120.7-15.8,126.3-120.2h0c0.1-4.2,0.2-8.6,0.2-13.1c0,0,0.7-22.7-13.1-40.7l0.1,0V46.5L222.1,46.5z M234.9,128.6
				L234.9,128.6L234.9,128.6z"/>
			<g>
				<path class="st3" d="M108.1,247.8c0,0-44-109.5,1.8-109.5C155.6,138.3,108.1,247.8,108.1,247.8z"/>
				<path class="st1" d="M108.1,252.8l-1.7-4.2c-1.3-3.2-31.1-78.1-13.8-103.6c3.8-5.7,9.7-8.6,17.3-8.6c7.6,0,13.3,2.8,17,8.5
					c16.7,25.4-15.6,100.6-17,103.7L108.1,252.8z M109.9,140.2c-6.4,0-11.1,2.3-14.2,6.9c-13.8,20.5,6.3,78.9,12.5,95.6
					c6.7-16.6,28.9-75.4,15.5-95.7C120.7,142.4,116.2,140.2,109.9,140.2z"/>
			</g>
			<g>
				<path class="st3" d="M197.8,142.9c-9.9,0-19-4.8-24.7-12.5c-5.7,7.7-14.8,12.5-24.7,12.5c-16.9,0-30.7-13.8-30.7-30.7
					c0-16.9,13.8-30.7,30.7-30.7c9.9,0,19,4.8,24.7,12.5c5.7-7.7,14.8-12.5,24.7-12.5c16.9,0,30.7,13.8,30.7,30.7
					C228.5,129.1,214.8,142.9,197.8,142.9z M175,112.2l2.5,7.1c3,8.7,11.2,14.5,20.4,14.5c11.9,0,21.6-9.7,21.6-21.6
					c0-11.9-9.7-21.6-21.6-21.6c-9.2,0-17.4,5.8-20.4,14.5L175,112.2z M148.5,90.6c-11.9,0-21.6,9.7-21.6,21.6
					c0,11.9,9.7,21.6,21.6,21.6c9.2,0,17.4-5.8,20.4-14.5l2.5-7.1l-2.5-7.1C165.8,96.4,157.6,90.6,148.5,90.6z"/>
			</g>
			<path class="st1" d="M197.8,86c-11.4,0-21.1,7.3-24.7,17.5C169.6,93.4,159.9,86,148.5,86c-14.4,0-26.1,11.7-26.1,26.1
				c0,14.4,11.7,26.1,26.1,26.1c11.4,0,21.1-7.3,24.7-17.5c3.6,10.2,13.3,17.5,24.7,17.5c14.4,0,26.1-11.7,26.1-26.1
				C224,97.7,212.3,86,197.8,86z"/>
			<g>
				<g>
					<path class="st3" d="M156,111.8c0,4.4-3.5,7.9-7.9,7.9c-4.4,0-7.9-3.5-7.9-7.9c0-4.4,3.5-7.9,7.9-7.9
						C152.5,103.9,156,107.4,156,111.8z"/>
				</g>
				<g>
					<g>
						<path class="st3" d="M206.1,111.8c0,4.4-3.5,7.9-7.9,7.9c-4.4,0-7.9-3.5-7.9-7.9c0-4.4,3.5-7.9,7.9-7.9
							C202.5,103.9,206.1,107.4,206.1,111.8z"/>
					</g>
				</g>
			</g>
			<path class="st3" d="M178,119.7c-2.7,0-7.2,0-10,0h-1.2c-2.7,0-4,2-2.9,4.5l7,14.8c1.2,2.5,3.1,2.5,4.3,0l7-14.8
				c1.2-2.5-0.1-4.5-2.9-4.5H178z"/>
		</g>
	</g>
	<g>
		<path class="st1" d="M116.9,258.6h-14.1v6.1h11.1v5.6h-11.1v6.5h14.1v5.9H95.7V253h21.2V258.6z"/>
		<path class="st1" d="M145,264l-7.3,0.5c-0.1-4.2-1.7-6.3-4.9-6.3c-3.6,0-5.4,3.2-5.4,9.7c0,3.7,0.5,6.2,1.5,7.6c1,1.3,2.4,2,4.1,2
			c2.9,0,4.6-1.9,5.3-5.6l6.7,0.4c-0.4,3.5-1.8,6.2-4,8.1c-2.2,1.8-4.9,2.8-8.1,2.8c-3.9,0-7.1-1.4-9.6-4.1
			c-2.5-2.7-3.7-6.5-3.7-11.2c0-4.5,1.2-8.1,3.6-11c2.4-2.9,5.6-4.3,9.7-4.3C140.1,252.5,144.1,256.4,145,264z"/>
		<path class="st1" d="M170.2,258.6h-14.1v6.1h11.1v5.6h-11.1v6.5h14.1v5.9H149V253h21.2V258.6z"/>
		<path class="st1" d="M174.4,253h9.1c3.7,0,6.4,0.5,8.3,1.5c1.8,1,3.4,2.6,4.9,4.8c1.4,2.2,2.1,5,2.1,8.4c0,4.2-1.3,7.8-3.8,10.6
			c-2.5,2.8-6,4.3-10.4,4.3h-10.2V253z M181.2,258.4v18.6h2.9c2.5,0,4.4-0.9,5.6-2.8c1.2-1.9,1.8-4.1,1.8-6.7c0-1.8-0.4-3.5-1.1-5
			c-0.7-1.5-1.6-2.6-2.6-3.2c-1-0.6-2.3-0.9-3.8-0.9H181.2z"/>
		<path class="st1" d="M226.6,253v18.5c0,3-0.3,5.2-1,6.7c-0.7,1.5-1.9,2.7-3.8,3.6c-1.8,0.9-4.2,1.4-7,1.4c-2.9,0-5.1-0.4-6.8-1.3
			c-1.7-0.8-3-2-3.8-3.6c-0.8-1.5-1.3-3.8-1.3-6.8V253h7.5v18.5c0,1.6,0.1,2.8,0.4,3.5c0.3,0.8,0.8,1.4,1.6,1.8
			c0.8,0.4,1.8,0.7,3,0.7c1.3,0,2.4-0.2,3.2-0.7c0.8-0.4,1.4-1,1.6-1.7c0.3-0.7,0.4-1.9,0.4-3.6V253H226.6z"/>
	</g>
</g>
</svg>
