<svg xmlns="http://www.w3.org/2000/svg" viewBox="0 0 136.69 113.91"><defs><style>.cls-1{fill:#fff;}</style></defs><title>menuIcon1_3</title><g id="Capa_2" data-name="Capa 2"><g id="Capa_1-2" data-name="Capa 1"><path class="cls-1" d="M136.69,5.7V17.09a5.46,5.46,0,0,1-1.69,4,5.46,5.46,0,0,1-4,1.69H5.7a5.47,5.47,0,0,1-4-1.69,5.46,5.46,0,0,1-1.69-4V5.7a5.47,5.47,0,0,1,1.69-4A5.47,5.47,0,0,1,5.7,0H131a5.46,5.46,0,0,1,4,1.69A5.47,5.47,0,0,1,136.69,5.7Zm0,45.56V62.65a5.77,5.77,0,0,1-5.69,5.7H5.7a5.5,5.5,0,0,1-4-1.69,5.48,5.48,0,0,1-1.69-4V51.26a5.44,5.44,0,0,1,1.69-4,5.48,5.48,0,0,1,4-1.7H131a5.79,5.79,0,0,1,5.69,5.7Zm0,45.56v11.4a5.77,5.77,0,0,1-5.69,5.69H5.7a5.47,5.47,0,0,1-4-1.69,5.46,5.46,0,0,1-1.69-4V96.82a5.46,5.46,0,0,1,1.69-4,5.47,5.47,0,0,1,4-1.69H131a5.77,5.77,0,0,1,5.69,5.69Z"/></g></g></svg>